#!OML:ASF X:\für Bonn\!DataBase\2005_08_10_Bjorn_Final\c3d\bjorn.ASF
:FULLY-SPECIFIED
:DEGREES
66
root 1.06258 10.928 3.99886 -180.879 -0.577521 -180.503
lowerback 24.8888 1.8151 2.21932
upperback 10.8689 0.152289 -2.05698
thorax -1.77845 -0.878312 -3.49633
lowerneck -23.556 -3.78717 0.395031
upperneck 2.98132 -6.11994 3.85903
head 4.67969 -2.97874 0.505749
rclavicle -1.59028e-015 -2.0276e-014
rhumerus 78.5946 -5.13206 -59.1811
rradius 18.0871
rwrist 26.0522
rhand -13.9235 13.4914
rfingers 7.12502
rthumb 12.2029 -16.1327
lclavicle -1.59028e-015 -2.0276e-014
lhumerus 85.0858 -8.46124 46.2183
lradius 14.5144
lwrist -22.4943
lhand -30.1101 -12.7929
lfingers 7.12502
lthumb -3.42377 17.1594
rfemur -74.0613 -27.6223 12.022
rtibia 132.249
rfoot -37.8853 26.7201
rtoes -35.3673
lfemur -73.7384 20.6537 -17.8914
ltibia 133.391
lfoot -30.8067 -21.9582
ltoes -26.2231
67
root 1.06563 10.7106 4.00401 -181.237 -0.580852 -180.527
lowerback 25.4846 1.8394 2.22409
upperback 10.9503 0.11882 -2.06212
thorax -1.97452 -0.925591 -3.49884
lowerneck -23.6207 -3.72408 0.489319
upperneck 2.80601 -6.06625 3.74145
head 4.62509 -2.97117 0.460564
rclavicle -2.40529e-014 -3.02153e-014
rhumerus 78.6808 -5.31574 -59.5808
rradius 18.1513
rwrist 26.2668
rhand -14.205 13.4067
rfingers 7.12502
rthumb 11.9314 -16.2333
lclavicle -2.40529e-014 -3.02153e-014
lhumerus 84.995 -8.29706 46.4715
lradius 14.7049
lwrist -22.5515
lhand -29.864 -12.9894
lfingers 7.12502
lthumb -3.18609 16.9665
rfemur -74.9017 -30.38 11.581
rtibia 133.921
rfoot -38.1118 28.5975
rtoes -34.7709
lfemur -74.6539 22.625 -17.8529
ltibia 135.134
lfoot -31.3974 -22.36
ltoes -27.5416
68
root 1.06947 10.5023 4.00794 -181.624 -0.573123 -180.551
lowerback 26.1159 1.86758 2.19318
upperback 11.0337 0.0793209 -2.03049
thorax -2.18505 -0.980035 -3.43864
lowerneck -23.7153 -3.66835 0.527672
upperneck 2.64311 -6.00636 3.60439
head 4.57949 -2.96225 0.41789
rclavicle -1.78906e-015 5.96354e-015
rhumerus 78.7788 -5.44005 -59.6617
rradius 18.2824
rwrist 26.1072
rhand -14.422 13.2781
rfingers 7.12502
rthumb 11.7221 -16.3739
lclavicle -1.78906e-015 5.96354e-015
lhumerus 84.8784 -8.06418 46.8571
lradius 14.8839
lwrist -22.4947
lhand -29.5606 -13.2422
lfingers 7.12502
lthumb -2.8931 16.7179
rfemur -75.6137 -33.3092 11.0454
rtibia 135.506
rfoot -38.2578 30.7026
rtoes -33.9239
lfemur -75.4795 24.8351 -17.8292
ltibia 136.802
lfoot -32.1146 -22.6718
ltoes -28.8584
69
root 1.07213 10.2978 4.00812 -182.06 -0.574431 -180.538
lowerback 26.7363 1.88045 2.26243
upperback 11.1377 0.0355593 -2.02598
thorax -2.36212 -1.03472 -3.46398
lowerneck -23.8872 -3.60191 0.624149
upperneck 2.56881 -5.95067 3.46559
head 4.57172 -2.95052 0.362805
rclavicle 1.25234e-014 7.95139e-016
rhumerus 78.9191 -5.61474 -60.0705
rradius 18.3744
rwrist 26.2959
rhand -14.5115 13.1856
rfingers 7.12502
rthumb 11.6359 -16.4713
lclavicle 1.25234e-014 7.95139e-016
lhumerus 84.807 -7.85212 47.016
lradius 15.0708
lwrist -22.16
lhand -29.3255 -13.5077
lfingers 7.12502
lthumb -2.66604 16.4554
rfemur -76.1796 -36.5915 10.4071
rtibia 137.049
rfoot -38.6445 32.8328
rtoes -33.3067
lfemur -76.2051 27.3415 -17.7539
ltibia 138.437
lfoot -32.782 -23.1268
ltoes -29.6305
